<?xml version="1.0" encoding="UTF-8"?>
<svg width="40px" height="40px" viewBox="0 0 40 40" version="1.1" xmlns="http://www.w3.org/2000/svg" xmlns:xlink="http://www.w3.org/1999/xlink">
    <g id="1" stroke="none" stroke-width="1" fill="none" fill-rule="evenodd">
        <g id="2" fill="#FFFFFF">
            <path d="M27.6205427,15.0667429 C33.9973808,15.0667429 39.1666667,19.4254953 39.1666667,24.8025462 C39.1666667,27.7359724 37.6113917,30.3765496 35.1773325,32.1613478 C34.9815791,32.3025569 34.8539958,32.5340546 34.8539958,32.7957233 C34.8539958,32.8819742 34.8722854,32.9614955 34.8945653,33.0439329 C35.0160106,33.502456 35.1831363,34.1334247 35.2950017,34.5556164 L35.3546821,34.7808283 C35.3889715,34.9102011 35.4111891,34.9939704 35.4148747,35.007738 C35.4389282,35.0998212 35.4768374,35.1959421 35.4768374,35.2923995 C35.4768374,35.5075219 35.3045833,35.6818182 35.0918705,35.6818182 C35.0362999,35.6818182 34.9873801,35.6677608 34.9400202,35.6462594 L34.8695142,35.6092508 L32.3420122,34.1325555 C32.1518011,34.0215173 31.9507271,33.9530999 31.728925,33.9530999 C31.6106528,33.9530999 31.4968143,33.9712697 31.3894049,34.004469 C30.2100074,34.3476779 28.937943,34.5382373 27.6205427,34.5382373 C21.2439263,34.5382373 16.0743079,30.1794849 16.0743079,24.8025462 C16.0743079,19.4254953 21.2439263,15.0667429 27.6205427,15.0667429 Z M14.6887043,4.31818182 C21.6009268,4.31818182 27.3296505,8.58664565 28.3731513,14.1679394 C28.1240811,14.1556019 27.8733483,14.1475264 27.6206203,14.1475264 C20.6417796,14.1475264 14.9843296,18.9180173 14.9843296,24.802591 C14.9843296,25.7949805 15.1487136,26.7546194 15.4497704,27.6660296 C15.1977074,27.6775821 14.9440926,27.6844238 14.6887043,27.6844238 C13.1077131,27.6844238 11.5812579,27.4555057 10.1660918,27.0436551 C10.0372892,27.0036141 9.90061653,26.9820794 9.75884498,26.9820794 C9.54602137,26.9820794 9.34887577,27.034624 9.16167613,27.1238637 L9.0230517,27.1974261 L5.98998278,28.9694381 C5.90529672,29.0186763 5.82338181,29.0564741 5.72317736,29.0564741 C5.46789988,29.0564741 5.26117278,28.8472962 5.26117278,28.5891044 C5.26117278,28.5120133 5.28137132,28.4350218 5.30344191,28.3594926 L5.33566104,28.2474658 L5.35400075,28.1782706 C5.43442997,27.8747063 5.75252682,26.6736276 5.95983277,25.8911015 C5.98665742,25.7920644 6.00860485,25.6966164 6.00860485,25.5933173 C6.00860485,25.2791578 5.85530535,25.0013381 5.62064515,24.8317526 C2.69975201,22.6901742 0.833333333,19.5214368 0.833333333,16.001415 C0.833333333,9.54897636 7.0365872,4.31818182 14.6887043,4.31818182 Z M23.7717608,20.1294099 C22.9217965,20.1294099 22.2322259,20.8267071 22.2322259,21.6870846 C22.2322259,22.5474621 22.9217965,23.2446472 23.7717608,23.2446472 C24.6220576,23.2446472 25.3114066,22.5474621 25.3114066,21.6870846 C25.3114066,20.8267071 24.6220576,20.1294099 23.7717608,20.1294099 Z M31.4692137,20.1294099 C30.6190278,20.1294099 29.9299005,20.8267071 29.9299005,21.6870846 C29.9299005,22.5474621 30.6190278,23.2446472 31.4692137,23.2446472 C32.3196214,23.2446472 33.0087487,22.5474621 33.0087487,21.6870846 C33.0087487,20.8267071 32.3196214,20.1294099 31.4692137,20.1294099 Z M10.0703212,10.3934272 C9.04998719,10.3934272 8.22296796,11.2302511 8.22296796,12.2626817 C8.22296796,13.2950001 9.04998719,14.1319362 10.0703212,14.1319362 C11.0905443,14.1319362 11.9175636,13.2950001 11.9175636,12.2626817 C11.9175636,11.2302511 11.0905443,10.3934272 10.0703212,10.3934272 Z M19.307309,10.3934272 C18.2868642,10.3934272 17.4597341,11.2302511 17.4597341,12.2626817 C17.4597341,13.2950001 18.2868642,14.1319362 19.307309,14.1319362 C20.3274214,14.1319362 21.1546623,13.2950001 21.1546623,12.2626817 C21.1546623,11.2302511 20.3274214,10.3934272 19.307309,10.3934272 Z" id="形状结合"></path>
        </g>
    </g>
</svg>